# xmcd CD database file
#
# Track frame offsets:
#	150
#	16465
#	31052
#	47387
#
# Disc length: 822 seconds
#
# Revision: 0
# Processed by: cddbd v1.5.1PL0 Copyright (c) Steve Scherf et al.
# Submitted via: CDex 1.40Beta9
#
DISCID=21033404
DTITLE=のはらしんのすけ(矢島晶子) - ユルユルでDE−O！
DYEAR=2005
DGENRE=J-Pop
TTITLE0=ユルユルでDE−O！
TTITLE1=怒って・叱って・ダイエット  井上望 with Dee Jay Dori
TTITLE2=ユルユルでDE−O！（オリジナル・カラオケ）
TTITLE3=怒って・叱って・ダイエット（オリジナル・カラオケ）
EXTD=YEAR: 2005/01/19
EXTT0=
EXTT1=
EXTT2=
EXTT3=
PLAYORDER=
